<?xml version="1.0" encoding="iso-8859-1"?>
<!-- Generator: Adobe Illustrator 19.0.0, SVG Export Plug-In . SVG Version: 6.00 Build 0)  -->
<svg version="1.1" id="Capa_1" xmlns="http://www.w3.org/2000/svg" xmlns:xlink="http://www.w3.org/1999/xlink" x="0px" y="0px"
	 viewBox="0 0 512 512" style="enable-background:new 0 0 512 512;" xml:space="preserve">
<path style="fill:#D8D7DA;" d="M98.462,73.846H39.385c-8.157,0-14.769,6.613-14.769,14.769V128c0,8.157,6.613,14.769,14.769,14.769
	h59.077c8.157,0,14.769-6.613,14.769-14.769V88.615C113.231,80.459,106.618,73.846,98.462,73.846z"/>
<path style="fill:#787680;" d="M497.231,113.231H382.058l-35-52.5c-2.739-4.11-7.351-6.577-12.289-6.577H177.231
	c-4.938,0-9.55,2.467-12.289,6.577l-35,52.5H14.769C6.613,113.231,0,119.843,0,128v315.077c0,8.157,6.613,14.769,14.769,14.769
	h482.462c8.157,0,14.769-6.613,14.769-14.769V128C512,119.843,505.387,113.231,497.231,113.231z"/>
<path style="fill:#57565C;" d="M497.231,113.231H382.058l-35-52.5c-2.739-4.11-7.351-6.577-12.289-6.577H256v403.692h241.231
	c8.157,0,14.769-6.613,14.769-14.769V128C512,119.843,505.387,113.231,497.231,113.231z"/>
<path style="fill:#D8D7DA;" d="M256,152.615c-73.294,0-132.923,59.629-132.923,132.923S182.706,418.462,256,418.462
	s132.923-59.629,132.923-132.923S329.294,152.615,256,152.615z"/>
<path style="fill:#C6C5CA;" d="M388.923,285.538c0-73.294-59.629-132.923-132.923-132.923v265.846
	C329.294,418.462,388.923,358.832,388.923,285.538z"/>
<path style="fill:#FF728B;" d="M288.558,228.103L288.558,228.103c-12.601,0-24.069,4.952-32.558,13.009
	c-8.49-8.057-19.958-13.009-32.558-13.009c-26.096,0-47.327,21.231-47.327,47.327c0,28.223,15.681,53.597,40.925,66.218
	l32.355,16.177c2.079,1.04,4.342,1.559,6.605,1.559c2.263,0,4.526-0.52,6.605-1.559l32.355-16.177
	c25.244-12.622,40.925-37.995,40.925-66.218C335.885,249.333,314.655,228.103,288.558,228.103z"/>
<path style="fill:#FF3F62;" d="M262.605,357.826l32.355-16.177c25.244-12.622,40.925-37.995,40.925-66.218
	c0-26.096-21.231-47.327-47.327-47.327l0,0c-12.6,0-24.068,4.952-32.557,13.009v118.272
	C258.263,359.385,260.526,358.865,262.605,357.826z"/>
<path style="fill:#E0E0E2;" d="M443.569,192h-49.723c-8.157,0-14.769-6.613-14.769-14.769c0-8.157,6.613-14.769,14.769-14.769
	h49.723c8.157,0,14.769,6.613,14.769,14.769C458.338,185.387,451.726,192,443.569,192z"/>
<g>
</g>
<g>
</g>
<g>
</g>
<g>
</g>
<g>
</g>
<g>
</g>
<g>
</g>
<g>
</g>
<g>
</g>
<g>
</g>
<g>
</g>
<g>
</g>
<g>
</g>
<g>
</g>
<g>
</g>
</svg>
