<?xml version="1.0" encoding="iso-8859-1"?>
<!-- Generator: Adobe Illustrator 19.0.0, SVG Export Plug-In . SVG Version: 6.00 Build 0)  -->
<svg version="1.1" id="Capa_1" xmlns="http://www.w3.org/2000/svg" xmlns:xlink="http://www.w3.org/1999/xlink" x="0px" y="0px"
	 viewBox="0 0 496.016 496.016" style="enable-background:new 0 0 496.016 496.016;" xml:space="preserve">
<g>
	<g>
		<g>
			<path d="M279.24,197.832c-16.176-10.784-30.096-21.728-42.568-33.472c-27.44-25.84-36.68-43.696-36.64-70.736
				c0.024-17.408,11.056-36.192,29.448-37.512c13.336-1.04,25.504,6.128,31.272,18.08l14.408-6.952
				c-8.624-17.856-26.56-28.528-46.808-27.088c-27.696,1.984-44.288,28.736-44.32,53.448c-0.056,31.824,10.848,53.384,41.664,82.408
				c13.128,12.368,27.736,23.856,44.664,35.144L279.24,197.832z"/>
			
				<rect x="286.426" y="210.682" transform="matrix(0.8322 0.5544 -0.5544 0.8322 170.9018 -127.4348)" width="19.191" height="15.991"/>
			<path d="M496.008,336.016v-80h-112v32.936l-6.168,0.768c-29.392,3.68-57.36,14.232-81.832,30.616v-40.32
				c0-1.368-0.272-2.656-0.4-3.992l8.4,5.6l54.328-36.184c21.936-14.616,40.352-29.328,56.312-44.968
				c36.176-35.448,50.464-67.68,49.304-111.248c-1.264-47.144-37.424-86.256-82.312-89.04c-31.104-2-60.216,12.432-77.632,37.352
				C286.6,12.624,257.552-1.728,226.376,0.184c-44.888,2.784-81.048,41.896-82.304,89.032
				c-1.16,43.568,13.128,75.808,49.304,111.248c13.984,13.712,30.024,26.704,48.512,39.544H125.672
				c-16.448,0-31.024,9.864-37.144,25.152l-15.904,39.768c-3.664,9.168-12.408,15.088-22.28,15.088H40.008
				c-22.056,0-40,17.944-40,40v72h0.64c-0.376,2.624-0.64,5.28-0.64,8c0,15.664,6.48,29.824,16.888,40H0.008v16h496v-16H279.12
				c10.408-10.176,16.888-24.336,16.888-40V399.56l4.296,3.064c24.736,17.664,53.536,27.576,83.704,29.08v32.312h112v-80h-16v-48
				H496.008z M204.568,189.048c-32.64-31.984-45.536-60.792-44.504-99.408c1.04-38.928,30.608-71.208,67.312-73.488
				c1.512-0.088,3.024-0.136,4.536-0.136c27.608,0,52.744,15.648,64.888,40.784l7.208,14.912l7.2-14.912
				c12.808-26.504,40.008-42.512,69.432-40.64c36.704,2.272,66.272,34.552,67.312,73.488c1.024,38.616-11.864,67.424-44.504,99.408
				c-15.232,14.92-32.896,29.016-53.984,43.08l-45.456,30.272l-45.448-30.28C237.464,218.064,219.808,203.968,204.568,189.048z
				 M56.008,480.016c-22.056,0-40-17.944-40-40c0-22.056,17.944-40,40-40c22.056,0,40,17.944,40,40
				C96.008,462.072,78.064,480.016,56.008,480.016z M95.12,480.016c8.592-8.408,14.448-19.552,16.248-32h73.28
				c1.792,12.448,7.648,23.592,16.248,32H95.12z M240.008,480.016c-22.056,0-40-17.944-40-40c0-22.056,17.944-40,40-40
				c22.056,0,40,17.944,40,40C280.008,462.072,262.064,480.016,240.008,480.016z M280.008,400.904
				c-10.176-10.408-24.336-16.888-40-16.888c-28.152,0-51.456,20.912-55.36,48h-73.28c-3.904-27.088-27.208-48-55.36-48
				c-15.664,0-29.824,6.48-40,16.888v-40.888c0-13.232,10.768-24,24-24h10.336c16.448,0,31.024-9.864,37.144-25.152l15.904-39.768
				c3.664-9.16,12.408-15.08,22.28-15.08h130.336c13.232,0,24,10.768,24,24V400.904z M296.008,340.032
				c24.408-18.68,53.28-30.608,83.824-34.432l4.176-0.52v14.936h-16v32h-72V340.032z M384.008,415.712
				c-26.816-1.496-52.4-10.384-74.408-26.104l-13.592-9.704v-11.888h72v32h16V415.712z M384.008,336.016h32v32h16v-32h32v48h-80
				V336.016z M480.008,448.016h-80v-48h32v32h16v-32h32V448.016z M400.008,320.016v-48h32v32h16v-32h32v48H400.008z"/>
			<path d="M56.008,416.016c-13.232,0-24,10.768-24,24s10.768,24,24,24s24-10.768,24-24S69.24,416.016,56.008,416.016z
				 M56.008,448.016c-4.408,0-8-3.584-8-8c0-4.416,3.592-8,8-8s8,3.584,8,8C64.008,444.432,60.416,448.016,56.008,448.016z"/>
			<path d="M240.008,416.016c-13.232,0-24,10.768-24,24s10.768,24,24,24s24-10.768,24-24S253.24,416.016,240.008,416.016z
				 M240.008,448.016c-4.408,0-8-3.584-8-8c0-4.416,3.592-8,8-8s8,3.584,8,8C248.008,444.432,244.416,448.016,240.008,448.016z"/>
			<path d="M112.008,296.016v72h112v-96h-88C122.776,272.016,112.008,282.784,112.008,296.016z M208.008,352.016h-80v-56
				c0-4.416,3.592-8,8-8h72V352.016z"/>
		</g>
	</g>
</g>
<g>
</g>
<g>
</g>
<g>
</g>
<g>
</g>
<g>
</g>
<g>
</g>
<g>
</g>
<g>
</g>
<g>
</g>
<g>
</g>
<g>
</g>
<g>
</g>
<g>
</g>
<g>
</g>
<g>
</g>
</svg>
