<?xml version="1.0" encoding="iso-8859-1"?>
<!-- Generator: Adobe Illustrator 19.0.0, SVG Export Plug-In . SVG Version: 6.00 Build 0)  -->
<svg version="1.1" id="Capa_1" xmlns="http://www.w3.org/2000/svg" xmlns:xlink="http://www.w3.org/1999/xlink" x="0px" y="0px"
	 viewBox="0 0 496 496" style="enable-background:new 0 0 496 496;" xml:space="preserve">
<g>
	<g>
		<path d="M328.132,244.688v-15.744l44.016,22.008l4.608-10.784c14.688-34.264,2.832-74.152-28.184-94.832l-6.104-4.072l-3.328,4.16
			c3.256-13.928,4.992-28.184,4.992-42.528c0-2.096-0.144-4.168-0.376-6.2l0.344,0.032L352.892,0h-55.528l-8,48.008
			c-0.048,0-0.088-0.008-0.128-0.008c-16.048,0-31.088,6.944-41.44,18.872c-10.712-11.104-25.248-17.776-40.856-18.688L198.908,0
			H143.38l8.792,96.728l0.096-0.008c-0.048,0.808-0.136,1.616-0.136,2.44c0,20.016,3.208,39.776,9.536,58.744l14.464,43.392v43.392
			L12.82,408l5.656,5.656c3.36,3.36,84.016,82.344,229.656,82.344c145.856,0,226.552-86.92,229.92-90.616l5.128-5.648
			L328.132,244.688z M345.524,163.064c18.88,16.12,26.232,42.192,18.4,65.88l-36.08-18.04c0.112-0.96,0.288-1.912,0.288-2.904
			c0-6.032-2.312-11.48-5.992-15.696L345.524,163.064z M310.908,16h24.472l-4.648,51.064c-6.704-7.752-15.512-13.624-25.552-16.68
			L310.908,16z M165.348,64.968L160.892,16h24.472l5.592,33.568C180.924,52.064,172.068,57.52,165.348,64.968z M168.132,99.16
			c0-19.384,15.776-35.16,35.16-35.16c15.384,0,29.656,7.64,38.184,20.44l6.656,9.984l8.736-13.104
			C264.092,70.48,276.196,64,289.236,64c21.44,0,38.896,17.456,38.896,38.896c0,15.92-2.216,31.744-6.592,47.04l-7.768,27.2
			l-5.8,7.248c-1.256-0.2-2.528-0.384-3.84-0.384c-6.696,0-12.744,2.768-17.104,7.2l-53.248-17.752l-1.536,9.232
			c-0.52,3.096-0.784,6.208-1.048,9.312H189.9l-13.056-39.168C171.06,135.504,168.132,117.448,168.132,99.16z M304.132,216
			c-4.416,0-8-3.584-8-8s3.584-8,8-8c4.416,0,8,3.584,8,8S308.548,216,304.132,216z M312.132,230.52V240h-10.92l7.016-8.416
			C309.58,231.352,310.868,230.976,312.132,230.52z M290.572,227.768l-26.144,31.376c-12.976-18.872-19.144-41.648-17.52-64.448
			l33.448,11.144c-0.072,0.72-0.224,1.416-0.224,2.16C280.132,216.2,284.276,223.44,290.572,227.768z M237.164,240h-45.032v-32
			h38.72C231.428,218.936,233.612,229.688,237.164,240z M248.132,480c-117.08,0-191.512-54.776-212.36-72.328l10.12-10.12
			C79.98,423.296,149.436,464,248.132,464c81.952,0,143.568-30.56,180.832-56.2l-9.064-13.184
			C384.508,418.968,325.972,448,248.132,448c-92.376,0-157.784-37.344-190.808-61.88L187.444,256h56.568
			c3.472,6.656,7.52,13.048,12.28,19l7.72,9.64l24.12-28.944V256h28.688l123.344,123.344c-2.936,2.416-6.032,4.896-9.44,7.472
			l9.64,12.768c4.072-3.072,7.744-6.032,11.168-8.872l9.264,9.264C440.828,418.696,366.38,480,248.132,480z"/>
	</g>
</g>
<g>
</g>
<g>
</g>
<g>
</g>
<g>
</g>
<g>
</g>
<g>
</g>
<g>
</g>
<g>
</g>
<g>
</g>
<g>
</g>
<g>
</g>
<g>
</g>
<g>
</g>
<g>
</g>
<g>
</g>
</svg>
