<?xml version="1.0" encoding="iso-8859-1"?>
<!-- Generator: Adobe Illustrator 19.0.0, SVG Export Plug-In . SVG Version: 6.00 Build 0)  -->
<svg version="1.1" id="Capa_1" xmlns="http://www.w3.org/2000/svg" xmlns:xlink="http://www.w3.org/1999/xlink" x="0px" y="0px"
	 viewBox="0 0 496.026 496.026" style="enable-background:new 0 0 496.026 496.026;" xml:space="preserve">
<g>
	<g>
		<g>
			<path d="M112.813,98.738c7.768,7.296,16.704,14.144,27.328,20.92l27.968,17.856l27.968-17.856
				c10.624-6.776,19.56-13.616,27.336-20.92c12.656-11.88,25.504-27.584,24.768-53.928c-0.664-23.664-19.552-43.304-43-44.696
				c-14.304-0.8-27.832,4.696-37.056,14.632c-9.216-9.936-22.656-15.448-37.056-14.632c-23.448,1.392-42.336,21.032-43,44.704
				C87.309,71.162,100.157,86.858,112.813,98.738z M131.997,16.082c0.64-0.04,1.272-0.056,1.912-0.056
				c11.544,0,22.016,6.208,27.048,16.192l7.144,14.168l7.152-14.168c5.312-10.528,16.704-16.888,28.968-16.144
				c15.248,0.904,27.528,13.728,27.96,29.168c0.52,18.84-7.504,30.352-19.728,41.832c-7.04,6.608-15.208,12.848-24.992,19.096
				l-19.352,12.36l-19.352-12.36c-9.776-6.24-17.952-12.496-24.984-19.104c-12.216-11.472-20.248-22.968-19.728-41.816
				C104.469,29.81,116.749,16.986,131.997,16.082z"/>
			<path d="M289.493,75.914c5.544,1.488,11.456,2.456,18.064,2.968l19.64,1.536l8.504-17.232c2.864-5.792,4.96-11.224,6.416-16.624
				c2.464-9.16,3.88-20.248-4.304-33.064c-7.752-12.152-22.96-16.856-35.36-10.976c-6.232,2.952-10.832,8.024-13.16,14.096
				c-6.552-1.152-13.416,0.128-19.176,3.8c-11.592,7.416-15.096,23.064-7.968,35.624C269.565,69.13,280.141,73.434,289.493,75.914z
				 M278.733,33.898c1.768-1.136,3.808-1.688,5.864-1.688c2.28,0,4.592,0.68,6.616,2.048l13.984,9.4l-1.552-16.776
				c-0.384-4.2,1.832-8.088,5.672-9.904c5.048-2.408,11.656-0.152,15.024,5.136c4,6.264,4.632,11.768,2.336,20.288
				c-1.184,4.376-2.92,8.856-5.312,13.712l-3.712,7.512l-8.84-0.696c-5.632-0.44-10.6-1.248-15.2-2.48
				c-9.072-2.408-13.824-5.744-17.544-12.304C273.141,42.986,274.309,36.73,278.733,33.898z"/>
			<path d="M433.493,236.754c9.168-15.48,14.52-33.472,14.52-52.728c0-57.344-46.656-104-104-104s-104,46.656-104,104
				c0,1.816,0.184,3.584,0.272,5.376c-18.728-18.144-44.2-29.376-72.272-29.376c-3.248,0-6.456,0.192-9.624,0.488
				c1.008-2.648,1.624-5.488,1.624-8.488c0-13.232-10.768-24-24-24c-74.992,0-136,61.008-136,136v232h160h12.944h71.056h12h16h8h128
				h88V355.498C496.013,307.578,472.733,263.682,433.493,236.754z M344.013,96.026c48.52,0,88,39.48,88,88
				c0,10.224-1.84,20-5.056,29.128l-40.024-17.152c3.64-8.24,3.768-17.624,0.304-25.992c-3.664-8.856-10.984-15.672-20.08-18.712
				c-15.496-5.168-32.696,1.96-40,16.576l-4.088,8.152h-66.648C260.477,131.242,298.189,96.026,344.013,96.026z M332.957,192.026
				l8.496-16.992c3.768-7.536,12.632-11.184,20.632-8.552c4.688,1.568,8.464,5.088,10.36,9.656c1.888,4.56,1.704,9.72-0.504,14.144
				l-6.88,13.76l55.232,23.672c-15.192,26.432-43.664,44.312-76.28,44.312c-28.336,0-53.52-13.52-69.624-34.392
				c7.848-13.36,21.952-21.608,37.624-21.608v-16c-18.648,0-35.664,8.584-46.848,22.84c-4.68-9.464-7.752-19.84-8.752-30.84H332.957
				z M360.013,336.026v-49.36c3.448-0.536,6.832-1.232,10.152-2.104c-1.304,4.08-2.152,8.36-2.152,12.84v118.624h-40V345.01
				c0-10.544,0.648-21.08,1.928-31.536L360.013,336.026z M332.805,295.618c0.52-2.704,1.144-5.384,1.752-8.072
				c3.12,0.28,6.264,0.48,9.456,0.48v16L332.805,295.618z M256.013,264.026c0,17.632-5.264,34.032-14.224,47.808
				c-14.192-0.944-27.16-8.312-35.12-20.248l-13.312,8.872c8.728,13.088,21.92,22.152,36.832,25.776
				c-14.16,14.152-33.112,23.472-54.176,25.376v-0.352c0-22.016-7.76-43.456-21.856-60.368l-2.4-2.864h-3.744
				c-6.616,0-12-5.384-12-12c0-6.616,5.384-12,12-12c15.44,0,28-12.56,28-28v-1.128c0-4.224,2.056-8.224,5.496-10.688l40.912-29.216
				C242.837,211.122,256.013,236.042,256.013,264.026z M168.013,176.026c14.376,0,27.912,3.536,39.904,9.664l-35.712,25.504
				c-7.632,5.464-12.192,14.328-12.192,23.704v1.128c0,6.616-5.384,12-12,12c-15.44,0-28,12.56-28,28
				c0,14.056,10.408,25.72,23.912,27.704c10.4,13.608,16.088,30.368,16.088,47.536v0.352c-44.784-4.056-80-41.768-80-87.592
				C80.013,215.506,119.493,176.026,168.013,176.026z M136.013,144.026c4.408,0,8,3.584,8,8s-3.592,8-8,8s-8-3.584-8-8
				S131.605,144.026,136.013,144.026z M104.013,160.026c4.408,0,8,3.584,8,8s-3.592,8-8,8s-8-3.584-8-8
				S99.605,160.026,104.013,160.026z M88.013,192.026c0,4.416-3.592,8-8,8s-8-3.584-8-8s3.592-8,8-8S88.013,187.61,88.013,192.026z
				 M16.013,480.026v-216c0-47.168,27.416-87.944,67.088-107.544c-1.904,3.44-3.088,7.336-3.088,11.544c-13.232,0-24,10.768-24,24
				c0,11.872,8.688,21.688,20.024,23.6c-7.648,14.472-12.024,30.928-12.024,48.4c0,36.816,19.28,69.144,48.224,87.632
				c1.128,40.552,11.104,80.912,29.24,117.184l5.592,11.184H16.013z M272.013,480.026h-16h-12c-11.024,0-20-8.968-20-20
				c0-11.032,8.976-20,20-20h28V480.026z M272.013,416.026v8h-28c-19.848,0-36,16.152-36,36c0,7.4,2.256,14.272,6.096,20h-49.152
				l-9.168-18.336c-15.76-31.52-25.048-66.312-27.248-101.496c12.184,5.024,25.504,7.832,39.472,7.832h16.448
				c36.568,0,69.808,18.112,89.648,48H272.013z M216.117,356.146c33.176-17.4,55.896-52.136,55.896-92.12
				c0-1.816-0.184-3.584-0.272-5.376c12.92,12.512,29.064,21.648,47.048,26.152c-1.272,5.704-2.368,11.448-3.28,17.216l-0.296,0.408
				l0.216,0.16c-2.184,14.032-3.416,28.216-3.416,42.424v71.016h-19.248C276.181,385.914,248.477,364.618,216.117,356.146z
				 M432.013,456.026c0,13.232-10.768,24-24,24h-120v-48h96V297.402c0-13.008,9.496-24.112,21.616-25.264
				c6.904-0.592,13.464,1.52,18.52,6.128c5,4.536,7.864,11.008,7.864,17.76V456.026z M480.013,480.026h-40.208
				c5.08-6.704,8.208-14.96,8.208-24v-160c0-11.24-4.776-22.04-13.096-29.6c-4.92-4.48-10.92-7.424-17.288-9.016
				c2.376-2.384,4.64-4.896,6.784-7.504c34.896,23.944,55.6,62.984,55.6,105.592V480.026z"/>
			<path d="M232.013,248.026v-16c-22.056,0-40,17.944-40,40h16C208.013,258.794,218.781,248.026,232.013,248.026z"/>
			<path d="M64.597,360.562c2.552,37.584,13.784,74.728,32.472,107.432l13.888-7.936c-17.496-30.616-28.008-65.392-30.4-100.568
				L64.597,360.562z"/>
			<rect x="64.013" y="328.026" width="16" height="15.504"/>
			<path d="M48.013,288.026h-16v53.408c0,34.44,5.52,68.464,16.408,101.128l15.176-5.064
				c-10.336-31.032-15.584-63.352-15.584-96.064V288.026z"/>
			<rect x="32.013" y="256.026" width="16" height="16"/>
		</g>
	</g>
</g>
<g>
</g>
<g>
</g>
<g>
</g>
<g>
</g>
<g>
</g>
<g>
</g>
<g>
</g>
<g>
</g>
<g>
</g>
<g>
</g>
<g>
</g>
<g>
</g>
<g>
</g>
<g>
</g>
<g>
</g>
</svg>
