<?xml version="1.0" encoding="iso-8859-1"?>
<!-- Generator: Adobe Illustrator 19.0.0, SVG Export Plug-In . SVG Version: 6.00 Build 0)  -->
<svg version="1.1" id="Capa_1" xmlns="http://www.w3.org/2000/svg" xmlns:xlink="http://www.w3.org/1999/xlink" x="0px" y="0px"
	 viewBox="0 0 496 496" style="enable-background:new 0 0 496 496;" xml:space="preserve">
<g>
	<g>
		<g>
			<path d="M320,240V72c0-22.056-17.944-40-40-40v-8c0-13.232-12.36-24-27.552-24H203.56C188.36,0,176,10.768,176,24v8h-56v-8
				c0-13.232-9.168-24-20.448-24H68.448C57.168,0,48,10.768,48,24v8h-8C17.944,32,0,49.944,0,72v176c0,22.056,17.944,40,40,40h136
				v208h320V240H320z M192,24c0-4.336,5.288-8,11.552-8h48.888c6.272,0,11.56,3.664,11.56,8v8h-72V24z M64,24
				c0-4.88,2.632-8,4.448-8H99.56c1.808,0,4.44,3.12,4.44,8v8H64V24z M16,72c0-13.232,10.768-24,24-24h240c13.232,0,24,10.768,24,24
				v32h-76.168C211.68,84.472,187.272,72,160,72c-27.272,0-51.672,12.472-67.832,32H16V72z M248,160c0-14.408-3.552-27.984-9.712-40
				H304v120H196.448C226.808,226.112,248,195.512,248,160z M160,232c-39.704,0-72-32.304-72-72s32.296-72,72-72s72,32.304,72,72
				S199.704,232,160,232z M176,272H40c-13.232,0-24-10.768-24-24V120h65.712C75.552,132.016,72,145.592,72,160
				c0,48.52,39.48,88,88,88c5.472,0,10.8-0.568,16-1.528V272z M480,480H192V256h288V480z"/>
			<path d="M448,280H224v176h224V280z M432,440H240V296h192V440z"/>
			<path d="M300.536,399.208l3.464,1.664l3.464-1.664c5.536-2.656,10.44-5.352,14.832-8.136
				c4.984,15.96,18.488,28.736,42.248,40.136l3.456,1.664l3.464-1.664C402.264,416.432,416,399.4,416,376c0-11.488-9.36-32-28-32
				c-8.488,0-15.208,4.36-20,9.544c-4-4.336-9.432-7.928-16.04-9.048c0-0.168,0.04-0.32,0.04-0.496c0-11.488-9.36-32-28-32
				c-8.488,0-15.208,4.36-20,9.544c-4.792-5.184-11.512-9.544-20-9.544c-18.64,0-28,20.512-28,32
				C256,367.4,269.736,384.432,300.536,399.208z M348,360c7.592,0,12.512,10.848,12.632,11.112l7.272,17.392l7.464-17.384
				C375.416,371,380.352,360,388,360c7.472,0,12,11.112,12,16c0,11.872-3.976,24.8-32,39.08c-28.024-14.28-32-27.208-32-39.08
				C336,371.112,340.528,360,348,360z M284,328c7.648,0,12.584,11,12.616,11.072l7.288,17.424l7.464-17.384
				C311.416,339,316.352,328,324,328c7.472,0,12,11.112,12,16c0,1.232-0.176,2.28-0.272,3.408
				c-9.336,5.632-14.504,17.088-15.52,25.608c-4.416,3.416-9.808,6.792-16.208,10.064c-28.024-14.28-32-27.2-32-39.072
				C272,339.112,276.528,328,284,328z"/>
			<path d="M160,104c-30.872,0-56,25.12-56,56s25.128,56,56,56c9.84,0,19.528-2.592,28.008-7.496l-8.016-13.848
				C173.944,198.152,167.032,200,160,200c-22.056,0-40-17.944-40-40c0-22.056,17.944-40,40-40c22.056,0,40,17.944,40,40
				c0,9.856-3.616,19.328-10.184,26.664l11.92,10.672C210.936,187.056,216,173.8,216,160C216,129.12,190.872,104,160,104z"/>
		</g>
	</g>
</g>
<g>
</g>
<g>
</g>
<g>
</g>
<g>
</g>
<g>
</g>
<g>
</g>
<g>
</g>
<g>
</g>
<g>
</g>
<g>
</g>
<g>
</g>
<g>
</g>
<g>
</g>
<g>
</g>
<g>
</g>
</svg>
